<svg xmlns="http://www.w3.org/2000/svg" width="24" height="22" viewBox="0 0 24 22"><defs><style>.a{fill:#4a99e6;}.b{fill:#f0f9ff;}.c{fill:#0e6bc7;}</style></defs><g transform="translate(0 -1)"><path class="a" d="M23.25,3.69V5.25H.75V3.69a2,2,0,0,1,2-2h18.5A2,2,0,0,1,23.25,3.69Z"/><path class="b" d="M23.25,5.25V21.12a1.127,1.127,0,0,1-1.12,1.13H1.87A1.127,1.127,0,0,1,.75,21.12V5.25Z"/><path class="c" d="M6.75,18a.751.751,0,0,1-.53-1.281L8.939,14l-2.72-2.72A.75.75,0,0,1,7.28,10.219l3.25,3.25a.75.75,0,0,1,0,1.061L7.28,17.78a.744.744,0,0,1-.53.22Z"/><path class="c" d="M17.25,18h-4.5a.75.75,0,0,1,0-1.5h4.5a.75.75,0,0,1,0,1.5Z"/><path class="c" d="M21.25,23H2.75A2.752,2.752,0,0,1,0,20.25V3.75A2.752,2.752,0,0,1,2.75,1h18.5A2.752,2.752,0,0,1,24,3.75v16.5A2.752,2.752,0,0,1,21.25,23ZM2.75,2.5A1.252,1.252,0,0,0,1.5,3.75v16.5A1.252,1.252,0,0,0,2.75,21.5h18.5a1.252,1.252,0,0,0,1.25-1.25V3.75A1.252,1.252,0,0,0,21.25,2.5Z"/><path class="c" d="M23.25,6H.75a.75.75,0,0,1,0-1.5h22.5a.75.75,0,0,1,0,1.5Z"/></g></svg>